name rise44.9368peak50.754fall52.0217.mot
datacolumns 19
datarows 21
range 5.85497700000000 5.88831500000000
endheader
time	ground_force1_vx	ground_force1_vy	ground_force1_vz	ground_force1_px	ground_force1_py	ground_force1_pz	ground_force2_vx	ground_force2_vy	ground_force2_vz	ground_force2_px	ground_force2_py	ground_force2_pz	ground_torque1_x	ground_torque1_y	ground_torque1_z	ground_torque2_x	ground_torque2_y	ground_torque2_z	
5.85497700000000	9.09675300000000	692.93161699999996	37.04627600000000	0.26909400000000	0.00000000000000	0.06410200000000	0.00000000000000	0.00000000000000	0.00000000000000	0.00000000000000	0.00000000000000	0.00000000000000	0.00000000000000	18.90642500000000	0.00000000000000	0.00000000000000	0.00000000000000	0.00000000000000	
5.85665300000000	8.59727100000000	693.87717099999998	37.11779600000000	0.26868000000000	0.00000000000000	0.06409600000000	0.00000000000000	0.00000000000000	0.00000000000000	0.00000000000000	0.00000000000000	0.00000000000000	0.00000000000000	18.96731500000000	0.00000000000000	0.00000000000000	0.00000000000000	0.00000000000000	
5.85831500000000	8.09014200000000	694.84118000000001	37.19159100000000	0.26827000000000	0.00000000000000	0.06408900000000	0.00000000000000	0.00000000000000	0.00000000000000	0.00000000000000	0.00000000000000	0.00000000000000	0.00000000000000	19.03117100000000	0.00000000000000	0.00000000000000	0.00000000000000	0.00000000000000	
5.85998200000000	7.57521800000000	695.82333900000003	37.26745300000000	0.26786300000000	0.00000000000000	0.06408300000000	0.00000000000000	0.00000000000000	0.00000000000000	0.00000000000000	0.00000000000000	0.00000000000000	0.00000000000000	19.09780400000000	0.00000000000000	0.00000000000000	0.00000000000000	0.00000000000000	
5.86164400000000	7.05237000000000	696.82344300000000	37.34518300000000	0.26745500000000	0.00000000000000	0.06407800000000	0.00000000000000	0.00000000000000	0.00000000000000	0.00000000000000	0.00000000000000	0.00000000000000	0.00000000000000	19.16703100000000	0.00000000000000	0.00000000000000	0.00000000000000	0.00000000000000	
5.86331100000000	6.52149300000000	697.84137799999996	37.42459500000000	0.26704400000000	0.00000000000000	0.06407300000000	0.00000000000000	0.00000000000000	0.00000000000000	0.00000000000000	0.00000000000000	0.00000000000000	0.00000000000000	19.23866900000000	0.00000000000000	0.00000000000000	0.00000000000000	0.00000000000000	
5.86498500000000	5.98250200000000	698.87711999999999	37.50551200000000	0.26662800000000	0.00000000000000	0.06406900000000	0.00000000000000	0.00000000000000	0.00000000000000	0.00000000000000	0.00000000000000	0.00000000000000	0.00000000000000	19.31254400000000	0.00000000000000	0.00000000000000	0.00000000000000	0.00000000000000	
5.86664600000000	5.43533700000000	699.93073100000004	37.58777100000000	0.26620300000000	0.00000000000000	0.06406500000000	0.00000000000000	0.00000000000000	0.00000000000000	0.00000000000000	0.00000000000000	0.00000000000000	0.00000000000000	19.38848600000000	0.00000000000000	0.00000000000000	0.00000000000000	0.00000000000000	
5.86831600000000	4.87996100000000	701.00235399999997	37.67122200000000	0.26576800000000	0.00000000000000	0.06406200000000	0.00000000000000	0.00000000000000	0.00000000000000	0.00000000000000	0.00000000000000	0.00000000000000	0.00000000000000	19.46632900000000	0.00000000000000	0.00000000000000	0.00000000000000	0.00000000000000	
5.86998300000000	4.31636100000000	702.09220800000003	37.75572700000000	0.26532000000000	0.00000000000000	0.06406100000000	0.00000000000000	0.00000000000000	0.00000000000000	0.00000000000000	0.00000000000000	0.00000000000000	0.00000000000000	19.54591400000000	0.00000000000000	0.00000000000000	0.00000000000000	0.00000000000000	
5.87164800000000	3.74454800000000	703.20058600000004	37.84116200000000	0.26485700000000	0.00000000000000	0.06406000000000	0.00000000000000	0.00000000000000	0.00000000000000	0.00000000000000	0.00000000000000	0.00000000000000	0.00000000000000	19.62708700000000	0.00000000000000	0.00000000000000	0.00000000000000	0.00000000000000	
5.87331400000000	3.16455900000000	704.32784500000002	37.92741700000000	0.26437600000000	0.00000000000000	0.06406000000000	0.00000000000000	0.00000000000000	0.00000000000000	0.00000000000000	0.00000000000000	0.00000000000000	0.00000000000000	19.70970100000000	0.00000000000000	0.00000000000000	0.00000000000000	0.00000000000000	
5.87498300000000	2.57645800000000	705.47440200000005	38.01439700000000	0.26387600000000	0.00000000000000	0.06406200000000	0.00000000000000	0.00000000000000	0.00000000000000	0.00000000000000	0.00000000000000	0.00000000000000	0.00000000000000	19.79361300000000	0.00000000000000	0.00000000000000	0.00000000000000	0.00000000000000	
5.87664600000000	1.98033100000000	706.64072999999996	38.10202100000000	0.26335500000000	0.00000000000000	0.06406500000000	0.00000000000000	0.00000000000000	0.00000000000000	0.00000000000000	0.00000000000000	0.00000000000000	0.00000000000000	19.87869000000000	0.00000000000000	0.00000000000000	0.00000000000000	0.00000000000000	
5.87831900000000	1.37629400000000	707.82734900000003	38.19022500000000	0.26281200000000	0.00000000000000	0.06406900000000	0.00000000000000	0.00000000000000	0.00000000000000	0.00000000000000	0.00000000000000	0.00000000000000	0.00000000000000	19.96480200000000	0.00000000000000	0.00000000000000	0.00000000000000	0.00000000000000	
5.87997800000000	0.76448600000000	709.03482399999996	38.27896000000000	0.26224300000000	0.00000000000000	0.06407500000000	0.00000000000000	0.00000000000000	0.00000000000000	0.00000000000000	0.00000000000000	0.00000000000000	0.00000000000000	20.05182900000000	0.00000000000000	0.00000000000000	0.00000000000000	0.00000000000000	
5.88165100000000	0.14507600000000	710.26375299999995	38.36819200000000	0.26164900000000	0.00000000000000	0.06408200000000	0.00000000000000	0.00000000000000	0.00000000000000	0.00000000000000	0.00000000000000	0.00000000000000	0.00000000000000	20.13965600000000	0.00000000000000	0.00000000000000	0.00000000000000	0.00000000000000	
5.88331200000000	-0.48174500000000	711.51476300000002	38.45790400000000	0.26102800000000	0.00000000000000	0.06409100000000	0.00000000000000	0.00000000000000	0.00000000000000	0.00000000000000	0.00000000000000	0.00000000000000	0.00000000000000	20.22817600000000	0.00000000000000	0.00000000000000	0.00000000000000	0.00000000000000	
5.88497900000000	-1.11575700000000	712.78850599999998	38.54809800000000	0.26037800000000	0.00000000000000	0.06410200000000	0.00000000000000	0.00000000000000	0.00000000000000	0.00000000000000	0.00000000000000	0.00000000000000	0.00000000000000	20.31729000000000	0.00000000000000	0.00000000000000	0.00000000000000	0.00000000000000	
5.88664800000000	-1.75671400000000	714.08564699999999	38.63878900000000	0.25969900000000	0.00000000000000	0.06411400000000	0.00000000000000	0.00000000000000	0.00000000000000	0.00000000000000	0.00000000000000	0.00000000000000	0.00000000000000	20.40690500000000	0.00000000000000	0.00000000000000	0.00000000000000	0.00000000000000	
5.88831500000000	-2.40434500000000	715.40686000000005	38.73001100000000	0.25899100000000	0.00000000000000	0.06412800000000	0.00000000000000	0.00000000000000	0.00000000000000	0.00000000000000	0.00000000000000	0.00000000000000	0.00000000000000	20.49693700000000	0.00000000000000	0.00000000000000	0.00000000000000	0.00000000000000	
